<svg xmlns="http://www.w3.org/2000/svg" width="800" height="400"><style>text{font-family:&quot;Roboto&quot;,sans-serif;font-size:14px}.arrow,.box{stroke-width:2}.box{rx:8;ry:8}.arrow{fill:none;marker-end:url(#arrowhead)}</style><defs><marker id="arrowhead" markerHeight="7" markerWidth="10" orient="auto" refX="9" refY="3.5"><path fill="#5F6368" d="m0 0 10 3.5L0 7z"/></marker></defs><path fill="#F8F9FA" d="M0 0h800v400H0z"/><text x="400" y="40" style="font-size:18px;font-weight:700" text-anchor="middle">Turnover Prediction Solution Architecture</text><text x="400" y="65" style="font-size:14px;fill:#5f6368" text-anchor="middle">Alignment with BPO requirements and technical implementation</text><path fill="#E8F0FE" stroke="#4285F4" d="M100 100h600v60H100z" class="box"/><text x="400" y="130" font-weight="bold" text-anchor="middle">Data Sources</text><rect width="100" height="30" x="120" y="115" fill="#fff" stroke="#4285F4" rx="4" ry="4"/><text x="170" y="135" font-size="12" text-anchor="middle">HR System</text><rect width="100" height="30" x="240" y="115" fill="#fff" stroke="#4285F4" rx="4" ry="4"/><text x="290" y="135" font-size="12" text-anchor="middle">Survey Tools</text><rect width="100" height="30" x="360" y="115" fill="#fff" stroke="#4285F4" rx="4" ry="4"/><text x="410" y="135" font-size="12" text-anchor="middle">WFM System</text><rect width="100" height="30" x="480" y="115" fill="#fff" stroke="#4285F4" rx="4" ry="4"/><text x="530" y="135" font-size="12" text-anchor="middle">CRM Data</text><rect width="80" height="30" x="600" y="115" fill="#fff" stroke="#4285F4" rx="4" ry="4"/><text x="640" y="135" font-size="12" text-anchor="middle">External</text><path fill="#FCE8E6" stroke="#EA4335" d="M100 180h600v60H100z" class="box"/><text x="400" y="210" font-weight="bold" text-anchor="middle">Data Processing</text><rect width="120" height="30" x="130" y="195" fill="#fff" stroke="#EA4335" rx="4" ry="4"/><text x="190" y="215" font-size="12" text-anchor="middle">ETL Pipeline</text><rect width="120" height="30" x="270" y="195" fill="#fff" stroke="#EA4335" rx="4" ry="4"/><text x="330" y="215" font-size="12" text-anchor="middle">Feature Engineering</text><rect width="120" height="30" x="410" y="195" fill="#fff" stroke="#EA4335" rx="4" ry="4"/><text x="470" y="215" font-size="12" text-anchor="middle">Privacy Controls</text><rect width="120" height="30" x="550" y="195" fill="#fff" stroke="#EA4335" rx="4" ry="4"/><text x="610" y="215" font-size="12" text-anchor="middle">Data Validation</text><path fill="#FEF7E0" stroke="#FBBC05" d="M100 260h600v60H100z" class="box"/><text x="400" y="290" font-weight="bold" text-anchor="middle">Machine Learning</text><rect width="120" height="30" x="130" y="275" fill="#fff" stroke="#FBBC05" rx="4" ry="4"/><text x="190" y="295" font-size="12" text-anchor="middle">Model Training</text><rect width="120" height="30" x="270" y="275" fill="#fff" stroke="#FBBC05" rx="4" ry="4"/><text x="330" y="295" font-size="12" text-anchor="middle">Explainability</text><rect width="120" height="30" x="410" y="275" fill="#fff" stroke="#FBBC05" rx="4" ry="4"/><text x="470" y="295" font-size="12" text-anchor="middle">Prediction API</text><rect width="120" height="30" x="550" y="275" fill="#fff" stroke="#FBBC05" rx="4" ry="4"/><text x="610" y="295" font-size="12" text-anchor="middle">Model Monitoring</text><path fill="#E6F4EA" stroke="#34A853" d="M100 340h600v60H100z" class="box"/><text x="400" y="370" font-weight="bold" text-anchor="middle">Applications</text><rect width="170" height="30" x="130" y="355" fill="#fff" stroke="#34A853" rx="4" ry="4"/><text x="215" y="375" font-size="12" text-anchor="middle">HR Dashboard</text><rect width="170" height="30" x="330" y="355" fill="#fff" stroke="#34A853" rx="4" ry="4"/><text x="415" y="375" font-size="12" text-anchor="middle">Intervention Management</text><rect width="140" height="30" x="530" y="355" fill="#fff" stroke="#34A853" rx="4" ry="4"/><text x="600" y="375" font-size="12" text-anchor="middle">Analytics Portal</text><path stroke="#5F6368" d="M400 160v20" class="arrow"/><path stroke="#5F6368" d="M400 240v20" class="arrow"/><path stroke="#5F6368" d="M400 320v20" class="arrow"/></svg>