<svg xmlns="http://www.w3.org/2000/svg" width="800" height="400"><style>text{font-family:&quot;Roboto&quot;,sans-serif;font-size:14px}.arrow,.box{stroke-width:2}.box{rx:8;ry:8}.arrow{fill:none;marker-end:url(#arrowhead)}</style><defs><marker id="arrowhead" markerHeight="7" markerWidth="10" orient="auto" refX="9" refY="3.5"><path fill="#5F6368" d="m0 0 10 3.5L0 7z"/></marker></defs><path fill="#F8F9FA" d="M0 0h800v400H0z"/><text x="400" y="40" style="font-size:18px;font-weight:700" text-anchor="middle">Employee Turnover Prediction System</text><text x="400" y="65" style="font-size:14px;fill:#5f6368" text-anchor="middle">Three-stage process: Data Collection, ML Processing, and Actionable Insights</text><path fill="#E8F0FE" stroke="#4285F4" d="M100 100h180v180H100z" class="box"/><text x="190" y="130" fill="#4285F4" font-weight="bold" text-anchor="middle">Data Collection</text><rect width="140" height="25" x="120" y="150" fill="#fff" stroke="#4285F4" rx="4" ry="4"/><text x="190" y="167" font-size="12" text-anchor="middle">HR Records</text><rect width="140" height="25" x="120" y="185" fill="#fff" stroke="#4285F4" rx="4" ry="4"/><text x="190" y="202" font-size="12" text-anchor="middle">Engagement Surveys</text><rect width="140" height="25" x="120" y="220" fill="#fff" stroke="#4285F4" rx="4" ry="4"/><text x="190" y="237" font-size="12" text-anchor="middle">Team Metrics</text><rect width="140" height="25" x="120" y="255" fill="#fff" stroke="#4285F4" rx="4" ry="4"/><text x="190" y="272" font-size="12" text-anchor="middle">Compensation Data</text><path fill="#FCE8E6" stroke="#EA4335" d="M320 100h180v180H320z" class="box"/><text x="410" y="130" fill="#EA4335" font-weight="bold" text-anchor="middle">ML Processing</text><rect width="140" height="25" x="340" y="150" fill="#fff" stroke="#EA4335" rx="4" ry="4"/><text x="410" y="167" font-size="12" text-anchor="middle">Random Forest</text><rect width="140" height="25" x="340" y="185" fill="#fff" stroke="#EA4335" rx="4" ry="4"/><text x="410" y="202" font-size="12" text-anchor="middle">XGBoost</text><rect width="140" height="25" x="340" y="220" fill="#fff" stroke="#EA4335" rx="4" ry="4"/><text x="410" y="237" font-size="12" text-anchor="middle">SHAP Analysis</text><rect width="140" height="25" x="340" y="255" fill="#fff" stroke="#EA4335" rx="4" ry="4"/><text x="410" y="272" font-size="12" text-anchor="middle">Feature Importance</text><path fill="#E6F4EA" stroke="#34A853" d="M540 100h180v180H540z" class="box"/><text x="630" y="130" fill="#34A853" font-weight="bold" text-anchor="middle">Actionable Insights</text><rect width="140" height="25" x="560" y="150" fill="#fff" stroke="#34A853" rx="4" ry="4"/><text x="630" y="167" font-size="12" text-anchor="middle">At-Risk Employees</text><rect width="140" height="25" x="560" y="185" fill="#fff" stroke="#34A853" rx="4" ry="4"/><text x="630" y="202" font-size="12" text-anchor="middle">Risk Factors</text><rect width="140" height="25" x="560" y="220" fill="#fff" stroke="#34A853" rx="4" ry="4"/><text x="630" y="237" font-size="12" text-anchor="middle">Retention Strategies</text><rect width="140" height="25" x="560" y="255" fill="#fff" stroke="#34A853" rx="4" ry="4"/><text x="630" y="272" font-size="12" text-anchor="middle">Intervention Timing</text><path stroke="#5F6368" d="M280 190h40" class="arrow"/><path stroke="#5F6368" d="M500 190h40" class="arrow"/><rect width="320" height="40" x="240" y="320" fill="#FEF7E0" stroke="#FBBC05" rx="20" ry="20"/><text x="400" y="345" text-anchor="middle">15-30% Reduction in Employee Turnover</text></svg>