<svg xmlns="http://www.w3.org/2000/svg" width="800" height="400">
    <style>
        text{font-family:&quot;Roboto&quot;,sans-serif;font-size:14px}.axis-label,.stage-label{font-size:12px;fill:#5f6368}.tech-label{font-size:11px;fill:#202124}.tech-point{stroke-width:2;fill:#fff}
    </style>
    <path fill="#F8F9FA" d="M0 0h800v400H0z"/>
    <text x="400" y="40" style="font-size:18px;font-weight:700" text-anchor="middle">AI Hype Cycle 2025</text>
    <text x="400" y="60" style="font-size:14px;fill:#5f6368" text-anchor="middle">Current position of AI technologies on the path to maturity</text>
    <path stroke="#5F6368" stroke-width="2" d="M100 320h600M100 320V100"/>
    <text x="40" y="210" class="axis-label" font-weight="bold" text-anchor="middle" transform="rotate(-90 40 210)">Expectations</text>
    <text x="400" y="370" class="axis-label" font-weight="bold" text-anchor="middle">Maturity / Time</text>
    <path d="M100 300c50-100 80-170 140-200s120 50 160 100 100 90 200 80 100-30 100-30" style="fill:none;stroke:#4285f4;stroke-width:3"/>
    <text x="150" y="340" class="stage-label" text-anchor="middle">Technology Trigger</text>
    <text x="275" y="340" class="stage-label" text-anchor="middle">Peak of Inflated Expectations</text>
    <text x="400" y="340" class="stage-label" text-anchor="middle">Trough of Disillusionment</text>
    <text x="550" y="340" class="stage-label" text-anchor="middle">Slope of Enlightenment</text>
    <text x="680" y="340" class="stage-label" text-anchor="middle">Plateau of Productivity</text>
    <circle cx="120" cy="280" r="6" stroke="#EA4335" class="tech-point"/>
    <text x="120" y="260" class="tech-label" text-anchor="middle">AGI</text>
    <circle cx="150" cy="250" r="6" stroke="#34A853" class="tech-point"/>
    <text x="150" y="230" class="tech-label" text-anchor="middle">Quantum ML</text>
    <circle cx="230" cy="110" r="6" stroke="#FBBC05" class="tech-point"/>
    <text x="230" y="90" class="tech-label" text-anchor="middle">Generative AI</text>
    <circle cx="260" cy="130" r="6" stroke="#4285F4" class="tech-point"/>
    <text x="260" y="110" class="tech-label" text-anchor="middle">Multimodal AI</text>
    <circle cx="360" cy="220" r="6" stroke="#EA4335" class="tech-point"/>
    <text x="360" y="240" class="tech-label" text-anchor="middle">Self-driving cars</text>
    <circle cx="400" cy="200" r="6" stroke="#34A853" class="tech-point"/>
    <text x="400" y="220" class="tech-label" text-anchor="middle">AI assistants</text>
    <circle cx="480" cy="270" r="6" stroke="#FBBC05" class="tech-point"/>
    <text x="480" y="290" class="tech-label" text-anchor="middle">Recommendation systems</text>
    <circle cx="520" cy="260" r="6" stroke="#4285F4" class="tech-point"/>
    <text x="520" y="280" class="tech-label" text-anchor="middle">Computer vision</text>
    <circle cx="600" cy="280" r="6" stroke="#EA4335" class="tech-point"/>
    <text x="600" y="300" class="tech-label" text-anchor="middle">Fraud detection</text>
    <circle cx="650" cy="260" r="6" stroke="#34A853" class="tech-point"/>
    <text x="650" y="280" class="tech-label" text-anchor="middle">Speech recognition</text>
    <rect width="190" height="105" x="580" y="30" fill="#fff" stroke="#E0E0E0" rx="4" ry="4"/>
    <text x="650" y="50" font-size="12" font-weight="bold" text-anchor="middle">Technology Categories</text>
    <circle cx="600" cy="70" r="6" stroke="#EA4335" class="tech-point"/>
    <text x="670" y="74" font-size="12" text-anchor="middle">Speculative AI</text>
    <circle cx="600" cy="90" r="6" stroke="#FBBC05" class="tech-point"/>
    <text x="670" y="94" font-size="12" text-anchor="middle">Emerging AI</text>
    <circle cx="600" cy="110" r="6" stroke="#4285F4" class="tech-point"/>
    <text x="670" y="114" font-size="12" text-anchor="middle">Maturing AI</text>
    <circle cx="600" cy="130" r="6" stroke="#34A853" class="tech-point"/>
    <text x="670" y="134" font-size="12" text-anchor="middle">Established AI</text>
</svg>
