<svg xmlns="http://www.w3.org/2000/svg" width="800" height="400" viewBox="0 0 800 400"><style>text{font-family:&quot;Roboto&quot;,sans-serif;font-size:14px}.axis-label{font-size:12px;fill:#5f6368}.data-point{stroke-width:2;fill:#fff}.line{fill:none;stroke-width:3}.grid-line{stroke:#e0e0e0;stroke-width:1}.threshold{stroke-dasharray:5,5;stroke-width:2}.annotation{font-size:12px;fill:#5f6368}</style><path fill="#f8f9fa" d="M0 0h800v400H0z"/><text x="400" y="40" style="font-size:18px;font-weight:700" text-anchor="middle">LLM Capability Scaling</text><text x="400" y="60" style="font-size:14px;fill:#5f6368" text-anchor="middle">How capabilities emerge as model size increases</text><path stroke="#5f6368" stroke-width="2" d="M100 320h600M100 320V80"/><text x="100" y="340" class="axis-label" text-anchor="middle">1M</text><text x="220" y="340" class="axis-label" text-anchor="middle">10M</text><text x="340" y="340" class="axis-label" text-anchor="middle">100M</text><text x="460" y="340" class="axis-label" text-anchor="middle">1B</text><text x="580" y="340" class="axis-label" text-anchor="middle">10B</text><text x="700" y="340" class="axis-label" text-anchor="middle">100B+</text><text x="400" y="370" class="axis-label" font-weight="bold" text-anchor="middle">Model Size (Parameters)</text><text x="80" y="320" class="axis-label" text-anchor="end">Basic</text><text x="80" y="240" class="axis-label" text-anchor="end">Intermediate</text><text x="80" y="160" class="axis-label" text-anchor="end">Advanced</text><text x="80" y="80" class="axis-label" text-anchor="end">Emergent</text><text x="40" y="200" class="axis-label" font-weight="bold" text-anchor="middle" transform="rotate(-90 40 200)">Capability Level</text><path d="M100 240h600M100 160h600M220 80v240M340 80v240M460 80v240M580 80v240" class="grid-line"/><path stroke="#4285f4" d="M100 310c50-10 80-30 120-50s80-30 120-35 80-7 120-10c40-2 90-5 120-7 70-3 120-5 120-8" class="line"/><circle cx="100" cy="310" r="5" stroke="#4285f4" class="data-point"/><circle cx="220" cy="260" r="5" stroke="#4285f4" class="data-point"/><circle cx="340" cy="225" r="5" stroke="#4285f4" class="data-point"/><circle cx="460" cy="215" r="5" stroke="#4285f4" class="data-point"/><circle cx="580" cy="208" r="5" stroke="#4285f4" class="data-point"/><circle cx="700" cy="200" r="5" stroke="#4285f4" class="data-point"/><path stroke="#ea4335" d="M220 320c40-10 80-30 120-50s80-50 120-80c40-15 90-30 120-40 70-10 120-15 120-20" class="line"/><circle cx="220" cy="320" r="5" stroke="#ea4335" class="data-point"/><circle cx="340" cy="270" r="5" stroke="#ea4335" class="data-point"/><circle cx="460" cy="190" r="5" stroke="#ea4335" class="data-point"/><circle cx="580" cy="150" r="5" stroke="#ea4335" class="data-point"/><circle cx="700" cy="130" r="5" stroke="#ea4335" class="data-point"/><path stroke="#34a853" d="M340 320c40-20 80-80 120-150 40-40 90-60 120-70 70-10 120-15 120-20" class="line"/><circle cx="340" cy="320" r="5" stroke="#34a853" class="data-point"/><circle cx="460" cy="170" r="5" stroke="#34a853" class="data-point"/><circle cx="580" cy="100" r="5" stroke="#34a853" class="data-point"/><circle cx="700" cy="80" r="5" stroke="#34a853" class="data-point"/><path stroke="#fbbc05" d="M460 80v240M580 80v240" class="threshold"/><text x="440" y="120" fill="#fbbc05" class="annotation" text-anchor="end">Emergent reasoning</text><text x="560" y="90" fill="#fbbc05" class="annotation" text-anchor="end">Emergent instruction following</text><path d="M580 30h180v80H580z" style="fill:#fff;stroke:#e0e0e0;stroke-width:1;rx:4;ry:4"/><path stroke="#4285f4" stroke-width="3" d="M590 50h30"/><text x="630" y="55" font-size="12">Basic understanding</text><path stroke="#ea4335" stroke-width="3" d="M590 70h30"/><text x="630" y="75" font-size="12">Reasoning ability</text><path stroke="#34a853" stroke-width="3" d="M590 90h30"/><text x="630" y="95" font-size="12">Instruction following</text><text x="100" y="380" fill="#5f6368" font-size="12" font-style="italic">Note: Scaling relationships are approximate and continue to evolve as research progresses.</text></svg>