<svg xmlns="http://www.w3.org/2000/svg" width="800" height="400"><rect width="100%" height="100%" fill="#f8f9fa"/><circle cx="150" cy="100" r="20" fill="#4285f4"/><circle cx="150" cy="170" r="20" fill="#4285f4"/><circle cx="150" cy="240" r="20" fill="#4285f4"/><circle cx="150" cy="310" r="20" fill="#4285f4"/><circle cx="300" cy="120" r="20" fill="#ea4335"/><circle cx="300" cy="190" r="20" fill="#ea4335"/><circle cx="300" cy="260" r="20" fill="#ea4335"/><circle cx="450" cy="140" r="20" fill="#fbbc05"/><circle cx="450" cy="230" r="20" fill="#fbbc05"/><circle cx="600" cy="190" r="25" fill="#34a853"/><path stroke="#999" stroke-width="2" d="m170 100 110 20M170 100l110 90M170 100l110 160M170 170l110-50M170 170l110 20M170 170l110 90M170 240l110-120M170 240l110-50M170 240l110 20M170 310l110-190M170 310l110-120M170 310l110-50M320 120l110 20M320 120l110 110M320 190l110-50M320 190l110 40M320 260l110-120M320 260l110-30M470 140l105 50M470 230l105-40"/><text x="150" y="60" fill="#444" font-family="Arial" font-size="16" text-anchor="middle">Input Layer</text><text x="300" y="60" fill="#444" font-family="Arial" font-size="16" text-anchor="middle">Hidden Layer 1</text><text x="450" y="60" fill="#444" font-family="Arial" font-size="16" text-anchor="middle">Hidden Layer 2</text><text x="600" y="60" fill="#444" font-family="Arial" font-size="16" text-anchor="middle">Output</text><text x="600" y="195" fill="#fff" font-family="Arial" font-size="14" text-anchor="middle">Prediction</text></svg>