<svg xmlns="http://www.w3.org/2000/svg" width="800" height="400"><rect width="800" height="400" fill="#101010" rx="8" ry="8"/><text x="400" y="50" fill="#4285F4" font-family="'Product Sans', sans-serif" font-size="24" font-weight="bold" text-anchor="middle">Large Language Models (LLMs) Explained</text><g transform="translate(400 200)"><circle r="100" fill="none" stroke="#ff6f00" stroke-width="2" opacity=".8"/><circle r="80" fill="none" stroke="#4285F4" stroke-width="1.5" opacity=".7"/><circle r="60" fill="none" stroke="#EA4335" stroke-width="1.5" opacity=".7"/><circle cx="-85" cy="-50" r="6" fill="#4285F4"/><circle cx="-70" cy="70" r="6" fill="#34A853"/><circle cx="20" cy="-95" r="6" fill="#FBBC05"/><circle cx="90" cy="-40" r="6" fill="#EA4335"/><circle cx="75" cy="65" r="6" fill="#4285F4"/><circle cx="-25" cy="95" r="6" fill="#34A853"/><circle cx="-50" cy="-40" r="5" fill="#EA4335"/><circle cx="-40" cy="50" r="5" fill="#FBBC05"/><circle cx="15" cy="-60" r="5" fill="#4285F4"/><circle cx="55" cy="-30" r="5" fill="#34A853"/><circle cx="45" cy="45" r="5" fill="#EA4335"/><circle cx="-20" cy="60" r="5" fill="#FBBC05"/><circle cx="-25" cy="-25" r="4" fill="#34A853"/><circle cx="-20" cy="30" r="4" fill="#4285F4"/><circle cx="10" cy="-30" r="4" fill="#EA4335"/><circle cx="30" cy="-15" r="4" fill="#FBBC05"/><circle cx="25" cy="25" r="4" fill="#34A853"/><circle cx="-15" cy="35" r="4" fill="#4285F4"/><circle r="8" fill="#ff6f00"/><circle cx="-10" cy="-10" r="3" fill="#FBBC05"/><circle cx="10" cy="-5" r="3" fill="#EA4335"/><circle cx="5" cy="10" r="3" fill="#4285F4"/><circle cx="-8" cy="8" r="3" fill="#34A853"/><g opacity=".6"><path stroke="#4285F4" d="m-85-50 35 10M-50-40l25 15M-25-25 0 0"/><path stroke="#FBBC05" d="m20-95-5 35M15-60l-5 30M10-30 0 0"/><path stroke="#EA4335" d="M90-40 55-30M55-30 30-15M30-15 0 0"/><path stroke="#4285F4" d="M75 65 45 45M45 45 25 25M25 25 0 0"/><path stroke="#34A853" d="m-70 70 30-20M-40 50l20-20M-20 30 0 0M-25 95l5-35M-20 60l5-25M-15 35 0 0"/><path stroke="#4285F4" d="m-25-25 35-5" opacity=".4"/><path stroke="#FBBC05" d="m10-30 20 15" opacity=".4"/><path stroke="#EA4335" d="m30-15-5 40" opacity=".4"/><path stroke="#34A853" d="m25 25-40 10" opacity=".4"/><path stroke="#4285F4" d="m-15 35-5-5" opacity=".4"/><path stroke="#34A853" d="m-20 30-5-55" opacity=".4"/></g><circle r="15" fill="#ff6f00" opacity=".6"><animate attributeName="r" dur="3s" repeatCount="indefinite" values="15;90"/><animate attributeName="opacity" dur="3s" repeatCount="indefinite" values="0.6;0"/></circle></g><rect width="150" height="70" x="50" y="100" fill="#202124" stroke="#4285F4" stroke-width="2" rx="5" ry="5"/><text x="125" y="130" fill="#4285F4" font-family="'Roboto', sans-serif" font-size="14" text-anchor="middle">Text Corpora</text><text x="125" y="155" fill="#f4f4f4" font-family="'Roboto', sans-serif" font-size="12" text-anchor="middle">Trillions of Words</text><rect width="150" height="70" x="50" y="230" fill="#202124" stroke="#EA4335" stroke-width="2" rx="5" ry="5"/><text x="125" y="260" fill="#EA4335" font-family="'Roboto', sans-serif" font-size="14" text-anchor="middle">Transformer</text><text x="125" y="285" fill="#f4f4f4" font-family="'Roboto', sans-serif" font-size="12" text-anchor="middle">Neural Architecture</text><rect width="150" height="70" x="600" y="100" fill="#202124" stroke="#FBBC05" stroke-width="2" rx="5" ry="5"/><text x="675" y="130" fill="#FBBC05" font-family="'Roboto', sans-serif" font-size="14" text-anchor="middle">Parameters</text><text x="675" y="155" fill="#f4f4f4" font-family="'Roboto', sans-serif" font-size="12" text-anchor="middle">Billions of Weights</text><rect width="150" height="70" x="600" y="230" fill="#202124" stroke="#34A853" stroke-width="2" rx="5" ry="5"/><text x="675" y="260" fill="#34A853" font-family="'Roboto', sans-serif" font-size="14" text-anchor="middle">Capabilities</text><text x="675" y="285" fill="#f4f4f4" font-family="'Roboto', sans-serif" font-size="12" text-anchor="middle">Text Generation</text><g fill="none" stroke-width="2" marker-end="url(#a)"><path stroke="#4285F4" d="M200 135c50 0 150 0 100 65"/><path stroke="#EA4335" d="M200 265c50 0 150 0 100-65"/><path stroke="#FBBC05" d="M500 200c-50 0 50-65 100-65"/><path stroke="#34A853" d="M500 200c-50 0 50 65 100 65"/></g><defs><marker id="a" markerHeight="7" markerWidth="10" orient="auto" refX="10" refY="3.5"><path fill="#fff" d="m0 0 10 3.5L0 7z"/></marker></defs><g fill="#f4f4f4" font-family="'Product Sans', sans-serif" font-size="12"><text x="40" y="350">GPT-4</text><text x="120" y="350">Claude</text><text x="200" y="350">Llama</text><text x="280" y="350">Gemini</text><text x="360" y="350">Mistral</text><text x="440" y="350">PaLM</text><text x="520" y="350">Falcon</text><text x="600" y="350">Bard</text><text x="680" y="350">BERT</text></g><text x="400" y="380" fill="#ccc" font-family="'Roboto', sans-serif" font-size="10" text-anchor="middle">© 2025 AI Reality Check • LLMs Explained</text></svg>