<?xml version="1.0" encoding="UTF-8" standalone="no"?>
<svg width="800" height="400" xmlns="http://www.w3.org/2000/svg">
  <rect width="100%" height="100%" fill="#f8f9fa"/>
  <g>
    <!-- Flow Diagram -->
    <rect x="50" y="150" width="120" height="80" rx="10" fill="#4285f4" opacity="0.8"/>
    <rect x="250" y="150" width="120" height="80" rx="10" fill="#ea4335" opacity="0.8"/>
    <rect x="450" y="150" width="120" height="80" rx="10" fill="#fbbc05" opacity="0.8"/>
    <rect x="650" y="150" width="120" height="80" rx="10" fill="#34a853" opacity="0.8"/>
    
    <!-- Arrows -->
    <line x1="170" y1="190" x2="250" y2="190" stroke="#333" stroke-width="2"/>
    <polygon points="250,190 240,185 240,195" fill="#333"/>
    
    <line x1="370" y1="190" x2="450" y2="190" stroke="#333" stroke-width="2"/>
    <polygon points="450,190 440,185 440,195" fill="#333"/>
    
    <line x1="570" y1="190" x2="650" y2="190" stroke="#333" stroke-width="2"/>
    <polygon points="650,190 640,185 640,195" fill="#333"/>
    
    <!-- Labels -->
    <text x="110" y="190" font-family="Arial" font-size="16" fill="white" text-anchor="middle">Input</text>
    <text x="310" y="190" font-family="Arial" font-size="16" fill="white" text-anchor="middle">Process</text>
    <text x="510" y="190" font-family="Arial" font-size="16" fill="white" text-anchor="middle">Analysis</text>
    <text x="710" y="190" font-family="Arial" font-size="16" fill="white" text-anchor="middle">Output</text>
    
    <text x="400" y="30" font-family="Arial" font-size="20" fill="#333" text-anchor="middle" font-weight="bold">Process Flow</text>
  </g>
</svg>